<svg width="856" height="307" viewBox="0 0 856 307" fill="none" xmlns="http://www.w3.org/2000/svg">
<path d="M838.782 0H17.2181C7.70999 0 0 7.67093 0 17.1308V266.504C0 275.964 7.70999 283.635 17.2181 283.635H243.723C245.739 283.635 247.374 282.008 247.374 280.003V273.714C247.374 271.708 245.739 270.082 243.723 270.082H17.2181C15.2293 270.082 13.6219 268.483 13.6219 266.504V17.1308C13.6219 15.1521 15.2293 13.5529 17.2181 13.5529H838.782C840.771 13.5529 842.378 15.1521 842.378 17.1308V266.504C842.378 268.483 840.771 270.082 838.782 270.082H606.828C604.812 270.082 603.178 271.708 603.178 273.714V280.003C603.178 282.008 604.812 283.635 606.828 283.635H838.782C848.29 283.635 856 275.964 856 266.504V17.1308C856 7.67093 848.29 0 838.782 0Z" fill="#FF4E00"/>
<path fill-rule="evenodd" clip-rule="evenodd" d="M374.139 238.368H391.003V251.189H402.827V269.675H391.003V276.994C391.003 285.397 392.638 286.21 400.266 286.21H402.827V305.563H392.91C376.101 305.563 370.979 300.007 370.979 281.765V269.73H364.849V252.761C366.62 252.707 368.227 252.273 369.644 251.487C371.442 250.403 372.722 248.452 373.349 245.822C373.758 243.979 374.03 241.648 374.139 238.693V238.368ZM290.528 238.368H273.664V238.612C273.555 241.567 273.31 243.898 272.874 245.741C272.247 248.37 270.967 250.322 269.169 251.406C267.779 252.192 266.172 252.626 264.374 252.68V269.648H270.504V281.683C270.504 299.925 275.625 305.482 292.435 305.482H302.352V286.129H299.791C292.162 286.129 290.528 285.342 290.528 276.913V269.594H302.352V251.108H290.528V238.287V238.368ZM586.559 282.523L591.435 290.872C591.681 291.306 591.626 291.848 591.245 292.2L577.814 305.238C577.378 305.672 576.669 305.672 576.233 305.238L562.83 292.2C562.448 291.848 562.394 291.279 562.666 290.845L567.87 282.496C568.088 282.171 568.442 281.981 568.823 281.981H585.578C585.987 281.981 586.341 282.198 586.532 282.523M567.297 250.241H565.309C554.847 250.241 550.488 253.195 549.18 261.137L548.772 263.658L545.121 251.189H528.393V305.563H550.515V282.605C550.515 275.124 552.913 272.738 560.35 272.738H567.216L567.297 250.268V250.241ZM487.419 271.844L487.282 272.521H502.485L502.376 271.871C501.749 267.534 499.406 265.501 495.047 265.501C490.688 265.501 488.263 267.507 487.419 271.844ZM466.441 277.943C466.441 260.866 477.339 250.241 494.856 250.241C512.783 250.241 523.081 260.107 523.081 277.292V283.364H487.31L487.419 284.014C488.154 288.866 490.606 291.143 495.129 291.143C497.853 291.143 499.678 290.086 500.659 287.918H522.917C519.621 300.739 510.331 306.973 494.557 306.973C476.167 306.973 466.414 297.621 466.414 279.921V277.915L466.441 277.943ZM327.007 272.521L327.143 271.844C327.961 267.507 330.385 265.501 334.772 265.501C339.158 265.501 341.474 267.534 342.1 271.871L342.209 272.521H327.007ZM334.581 250.241C317.063 250.241 306.166 260.866 306.166 277.943V279.948C306.166 297.648 315.892 307 334.309 307C350.083 307 359.373 300.766 362.669 287.945H340.411C339.43 290.113 337.605 291.17 334.881 291.17C330.331 291.17 327.879 288.893 327.171 284.041L327.062 283.391H362.833V277.319C362.833 260.134 352.535 250.268 334.608 250.268L334.581 250.241ZM445.491 250.241C438.761 250.241 433.803 253.06 431.133 258.372L430.043 260.541V233.652H408.684V305.536H430.043V277.184C430.043 272.63 430.452 268.157 435.192 268.157C439.933 268.157 440.151 272.142 440.151 276.614V305.536H461.319V269.757C461.319 256.421 456.279 250.213 445.491 250.213V250.241Z" fill="#F2F1EF"/>
<path d="M735.228 139.568C734.493 138.944 733.403 138.944 732.695 139.568L684.745 180.579C683.846 181.338 683.846 182.72 684.745 183.506L726.755 220.587C727.11 220.912 727.573 221.075 728.036 221.075L824.942 221.617C826.74 221.617 827.585 219.394 826.222 218.229L735.283 139.595L735.228 139.568Z" fill="#FF4E00"/>
<path d="M400.92 96.3068C401.356 95.9273 401.601 95.3852 401.601 94.816V34.1533C401.601 33.0962 400.729 32.2288 399.666 32.2288H375.338C374.875 32.2288 374.439 32.3914 374.085 32.6896L154.391 218.174C153.001 219.34 153.846 221.59 155.644 221.59H250.888C251.351 221.59 251.787 221.427 252.141 221.129L400.947 96.3068H400.92Z" fill="#FF4E00"/>
<path d="M276.96 96.3068C277.396 95.9273 277.642 95.3852 277.642 94.816V34.1533C277.642 33.0962 276.77 32.2288 275.707 32.2288H251.378C250.915 32.2288 250.479 32.3914 250.125 32.6896L30.4041 218.174C29.0146 219.34 29.8592 221.59 31.6573 221.59H126.902C127.365 221.59 127.801 221.427 128.155 221.129L276.96 96.3068Z" fill="#FF4E00"/>
<path d="M824.915 32.2288H728.009C727.545 32.2288 727.082 32.3914 726.728 32.7167L603.45 135.99V221.481L826.168 35.617C827.53 34.4514 826.713 32.2017 824.888 32.2017L824.915 32.2288Z" fill="#FF4E00"/>
<path d="M518.068 32.7167C517.714 32.4185 517.251 32.2288 516.788 32.2288H418.192C417.13 32.2288 416.258 33.0962 416.258 34.1533V94.7889C416.258 95.846 417.13 96.7134 418.192 96.7134H497.281C497.771 96.7134 498.234 96.9031 498.589 97.2284L516.842 113.844C517.251 114.224 517.469 114.739 517.469 115.281V136.586C517.469 137.182 517.196 137.724 516.733 138.104L494.393 155.885C494.039 156.156 493.63 156.319 493.167 156.319H354.442C353.979 156.319 353.543 156.482 353.189 156.78L281.047 217.686C279.658 218.852 280.502 221.102 282.3 221.102H516.76C517.223 221.102 517.687 220.939 518.041 220.614L588.902 158.569V94.7347L518.041 32.6896L518.068 32.7167Z" fill="#FF4E00"/>
<path d="M32.3384 197.547L153.001 96.3068C153.437 95.9273 153.682 95.3852 153.682 94.816V34.1533C153.682 33.0962 152.81 32.2288 151.748 32.2288H127.419C126.956 32.2288 126.52 32.3914 126.166 32.6896L29.8047 114.007C29.3688 114.386 29.1236 114.928 29.1236 115.471V196.029C29.1236 197.682 31.0579 198.577 32.3384 197.52V197.547Z" fill="#FF4E00"/>
</svg>

